<?xml version="1.0" encoding="UTF-8"?>
<svg id="a" data-name="Layer_2" xmlns="http://www.w3.org/2000/svg" width="1024" height="1024" xmlns:xlink="http://www.w3.org/1999/xlink" viewBox="0 0 1024 1024">
  <defs>
    <linearGradient id="b" x1="513.7523" y1="226" x2="513.7523" y2="794.1417" gradientUnits="userSpaceOnUse">
      <stop offset="0" stop-color="#ff4d4d"/>
      <stop offset="1" stop-color="#db2c3a"/>
    </linearGradient>
  </defs>
  <path d="M762.933,285.2414l-23.1591-47.941c-3.3379-6.9098-10.3351-11.3004-18.0088-11.3004h-411.5693c-11.0457,0-20,8.9543-20,20v79.1234c0,11.0457,8.9543,20,20,20h252.6159l-299.266,369.994c-4.8581,6.0062-5.8228,14.2731-2.4782,21.2366l23.6813,49.3051c3.3294,6.9319,10.3383,11.341,18.0283,11.341h445.6319c11.0457,0,20-8.9543,20-20v-81.5029c0-11.0457-8.9543-20-20-20h-282.41s294.5572-369.0805,294.5572-369.0805c4.7994-6.0136,5.7236-14.2472,2.3768-21.1752Z" fill="url(#b)"/>
</svg>