<?xml version="1.0" encoding="UTF-8"?>
<svg id="a" data-name="Layer_1" xmlns="http://www.w3.org/2000/svg" width="1024" height="1024" xmlns:xlink="http://www.w3.org/1999/xlink" viewBox="0 0 1024 1024">
  <defs>
    <clipPath id="b">
      <polygon points="930.6682 699.6242 692.4361 937.8742 930.6682 937.8742 930.6682 699.6242" fill="none"/>
    </clipPath>
  </defs>
  <g clip-path="url(#b)">
    <g opacity=".35">
      <rect x="590.9231" y="844.4883" width="315.0769" height="29.5385" fill="#ffb600"/>
      <rect x="590.9231" y="805.1037" width="315.0769" height="29.5385" fill="#ffb600"/>
      <rect x="590.9231" y="765.7191" width="315.0769" height="29.5385" fill="#ffb600"/>
      <rect x="590.9231" y="726.3345" width="315.0769" height="29.5385" fill="#ffb600"/>
    </g>
    <g>
      <rect x="648.7692" y="731.0601" width="257.2308" height="184.8128" fill="none"/>
      <path d="M821.2998,747.3799l1.7969-.4678v-13.8564l-2.2402-.542c-.0488-.123-.0488-.3193-.0488-.4668,0-.2471.0244-.4678.0244-.4678l2.8555-.5176,1.3779.3945v15.5059c1.2061.1963,2.5107.5654,2.5107.5654,0,.542-.1475.96-.1475.96,0,0-1.7725-.0488-3.0273-.0488-1.2305,0-3.1016.0488-3.1016.0488v-1.1074Z" fill="#fff" opacity=".3"/>
      <path d="M828.5859,747.3555l1.8701-.4434v-7.7529l-2.0674-.7139s0-.4424.123-.9346l3.7168-.4189.2217.1729v9.6719c1.2061.2217,2.3379.5908,2.3379.5908,0,.5664-.1475.96-.1475.96,0,0-1.7969-.0488-2.9043-.0488-1.083,0-3.1504.0488-3.1504.0488v-1.1318ZM831.3916,731.7266c.6396,0,1.3291.3936,1.3291,1.3291,0,.7627-.418,1.4521-1.3535,1.4521-.6895,0-1.3535-.4678-1.3535-1.3535,0-.8369.4922-1.4277,1.3779-1.4277Z" fill="#fff" opacity=".3"/>
      <path d="M837.0293,747.5771v-14.6201l-2.1416-.418c-.0244-.1484-.0488-.3203-.0488-.4922,0-.2217.0244-.3945.0244-.3945l2.5596-.5908,1.5996.3203v6.5713h.0254c.7871-.5908,1.6982-.9346,2.9775-.9346,3.4463,0,5.0459,2.2881,5.0459,5.4385,0,3.5693-2.4619,6.2764-5.7354,6.2764-1.3779,0-2.8057-.1475-4.3066-1.1562ZM841.1396,738.5938c-.8125,0-1.5752.123-2.1172.2949v7.2607c.7881.9102,1.9443,1.083,2.7812,1.083,2.4365,0,3.1748-2.1416,3.1748-4.1592,0-2.6338-1.1318-4.4795-3.8389-4.4795Z" fill="#fff" opacity=".3"/>
      <path d="M848.8936,747.3311l1.5752-.3945v-7.5068l-2.0918-.9102c0-.3936,0-.542.0986-.9111l3.1504-.541.6895,1.7471h.0244c.6396-.9346,1.5996-1.7959,2.8799-1.7959.5654,0,1.1562.1963,1.5498.541l-.418,1.9199-.6895.1475c-.5654-.2949-1.0586-.4434-1.624-.4434-.5664,0-1.0586.1973-1.5752.4678v7.2852c1.2061.1484,2.5596.5664,2.5596.5664,0,.5664-.123.9844-.123.9844,0,0-1.9443-.0488-3.1016-.0488-1.2061,0-2.9043.0488-2.9043.0488v-1.1562Z" fill="#fff" opacity=".3"/>
      <path d="M864.1064,742.4326v-1.4521c0-1.6738-.9355-2.4121-2.3633-2.4121-1.083,0-1.7969.1729-2.8545.6406l-.4434-.8613c1.1572-.9854,2.4609-1.4277,3.7656-1.4277,2.5352,0,3.79.96,3.79,4.0117v5.71c.4678.1719,1.4521.5166,1.7969.6641-.0244.3945-.2461,1.083-.2461,1.083-.2949.0498-.541.0742-.96.0742-.8369,0-1.6484-.2217-2.166-1.1318h-.0244c-.7627.8613-1.9443,1.3535-3.5684,1.3535-2.1904,0-3.1504-1.5264-3.1504-2.9043,0-1.1074.3691-2.166,1.8213-2.6582.7871-.2705,2.3379-.4922,4.6025-.6895ZM864.1064,743.6631c-1.3291.123-3.0771.4189-3.5938.5664-.4434.123-.8369.5166-.8369,1.0586,0,.9355.4678,1.7715,2.0674,1.7715.6152,0,1.8457-.1719,2.3877-.6152v-2.7559l-.0244-.0254Z" fill="#fff" opacity=".3"/>
      <path d="M869.3984,747.3311l1.5752-.3945v-7.5068l-2.0918-.9102c0-.3936,0-.542.0986-.9111l3.1504-.541.6895,1.7471h.0244c.6396-.9346,1.5996-1.7959,2.8799-1.7959.5654,0,1.1562.1963,1.5498.541l-.418,1.9199-.6895.1475c-.5654-.2949-1.0586-.4434-1.624-.4434-.5664,0-1.0586.1973-1.5752.4678v7.2852c1.2061.1484,2.5596.5664,2.5596.5664,0,.5664-.123.9844-.123.9844,0,0-1.9443-.0488-3.1016-.0488-1.2061,0-2.9043.0488-2.9043.0488v-1.1562Z" fill="#fff" opacity=".3"/>
      <path d="M878.3096,747.3555l1.8701-.4434v-7.7529l-2.0674-.7139s0-.4424.123-.9346l3.7168-.4189.2217.1729v9.6719c1.2061.2217,2.3379.5908,2.3379.5908,0,.5664-.1475.96-.1475.96,0,0-1.7969-.0488-2.9043-.0488-1.083,0-3.1504.0488-3.1504.0488v-1.1318ZM881.1152,731.7266c.6396,0,1.3291.3936,1.3291,1.3291,0,.7627-.418,1.4521-1.3535,1.4521-.6895,0-1.3535-.4678-1.3535-1.3535,0-.8369.4922-1.4277,1.3779-1.4277Z" fill="#fff" opacity=".3"/>
      <path d="M894.9736,740.7842c0,.2705-.0254.6885-.0742,1.0332l-.7383.3691h-6.4482v.1729c0,2.6328.96,4.6758,3.9873,4.6758.9102,0,1.8457-.1719,2.9043-.6885l.5166.8359c-1.2549.9854-2.7568,1.502-4.2822,1.502-2.8799,0-5.1689-1.7725-5.1689-5.8828,0-3.4209,2.5107-5.9561,5.4639-5.9561,2.2393,0,3.8398,1.3291,3.8398,3.9385ZM892.9551,740.9316c0-1.5264-.6152-2.6338-2.4854-2.6338-1.5752,0-2.3633,1.1816-2.6338,2.6338h5.1191Z" fill="#fff" opacity=".3"/>
      <path d="M899.0596,739.5527c0,2.2158,6.0059,1.8223,6.0059,5.5137,0,2.6094-2.3877,3.5938-4.4062,3.5938-.96,0-2.7812-.2217-3.79-.9844l.3447-2.2158h.8857c.5664,1.1328,1.624,1.748,2.8555,1.748,1.1074,0,2.2637-.2959,2.2637-1.4521,0-1.0342-1.0088-1.6006-2.8789-2.4121-1.7969-.7637-2.9785-1.5508-2.9785-3.2002,0-1.9189,1.8213-3.2979,4.2578-3.2979,1.1318,0,2.166.3203,3.0518.9111l-.4922,1.9189h-.7383c-.7139-.8115-1.4521-1.4023-2.707-1.4023-.9355,0-1.6738.4922-1.6738,1.2793Z" fill="#fff" opacity=".3"/>
      <path d="M791.1455,782.0146c0-3.3477,2.7324-5.7842,5.8584-5.7842.7139,0,1.5752.0986,2.2148.3203h.0244v-4.1846l-2.2646-.4922c-.0244-.0986-.0244-.2461-.0244-.3691,0-.2705.0244-.5166.0244-.5166l2.6582-.542,1.6006.3203v15.2109l1.9932.4922s-.0488.3691-.123.8115l-3.0518.6406-.5664-1.1816h-.0244c-.8613.9355-2.3135,1.3047-3.2979,1.3047-3.5195,0-5.0215-2.4121-5.0215-6.0303ZM796.8809,786.3467c.8613,0,1.7959-.1484,2.3623-.542v-6.9902c-.7871-.6396-1.6982-1.1562-3.0273-1.1562-2.2393,0-3.0273,2.1904-3.0273,4.1104,0,2.5596,1.1074,4.5781,3.6924,4.5781Z" fill="#fff" opacity=".3"/>
      <path d="M810.0254,776.2803c2.8057,0,5.3652,1.7227,5.3652,5.5869,0,3.6914-2.166,6.2021-5.5869,6.2021-3.126,0-5.292-1.9941-5.292-6.1045,0-3.1504,2.2891-5.6846,5.5137-5.6846ZM810.0742,786.5928c2.2891,0,3.2002-1.8467,3.2002-4.1846,0-2.707-1.2061-4.6758-3.3477-4.6758-2.2891,0-3.2734,1.4512-3.2734,3.8633,0,3.3232,1.3779,4.9971,3.4209,4.9971Z" fill="#fff" opacity=".3"/>
      <path d="M822.9727,776.2305c1.0586,0,2.5352.1973,3.2734.96l-.5664,2.0674-.6152-.0244c-.8369-.7627-1.6494-1.4766-2.9531-1.4766-2.0928,0-2.8555,1.8213-2.8555,4.1104,0,2.6582,1.2305,4.5283,4.0117,4.5283,1.2061,0,1.9443-.2461,2.8311-.7627l.5654.8115c-1.1318,1.0586-2.6582,1.625-4.3066,1.625-3.2246,0-5.1934-2.166-5.1934-5.8086s2.6338-6.0303,5.8086-6.0303Z" fill="#fff" opacity=".3"/>
      <path d="M829.2998,778.4707l-1.8467-.7881s0-.3203.0986-.8125l3.3965-.2949.3447.2217v6.3994c0,2.0918.7383,3.1504,2.6826,3.1504,1.1572,0,1.9443-.1973,2.4863-.542v-7.2852l-2.0186-.7139s0-.3691.123-.8613l3.4951-.3203.3936.2217v9.1064l1.8955.5664s-.0244.3691-.0986.8125l-2.8555.6152-.5898-1.2061h-.0254c-.9346.9102-2.3623,1.3047-3.6172,1.3047-3.1016,0-3.8643-1.5508-3.8643-4.6279v-4.9463Z" fill="#fff" opacity=".3"/>
      <path d="M849.4092,786.7402l1.3047-.4189v-5.168c0-2.6582-1.0342-3.1748-2.6826-3.1748-.96,0-2.0186.2949-2.4365.4922v7.8262c1.1807.2217,2.4854.5908,2.4854.5908,0,.3691-.1475.9844-.1475.9844,0,0-1.7227-.0488-2.9287-.0488-1.1328,0-2.9287.0488-2.9287.0488v-1.1318l1.5498-.4434v-7.6787l-2.1406-.8125s.0488-.418.1719-.9102l3.2734-.5176.4678,1.1816h.0244c.9355-.7627,2.2891-1.2061,3.9385-1.2061.9102,0,2.3623.2217,2.8789,1.3047h.0254c1.1318-.7627,2.5098-1.2803,4.0361-1.2803,1.2549,0,2.1416.2959,2.7812,1.0342.3936.4678.7383,1.083.7383,3.4209v5.5137c1.0586.1963,2.166.541,2.166.541,0,.4434-.1475.9844-.1475.9844,0,0-1.4033-.0488-2.5596-.0488h-.9111c-.96,0-1.9688.0488-1.9688.0488v-1.1074l1.4277-.418v-5.3408c0-2.5107-.96-2.9541-2.6836-2.9541-.96,0-1.8701.2705-2.4609.4922v7.7773c1.1816.2217,2.4121.5664,2.4121.5664,0,.4189-.123.9844-.123.9844,0,0-1.6494-.0488-2.8799-.0488-1.1074,0-2.6826.0488-2.6826.0488v-1.1318Z" fill="#fff" opacity=".3"/>
      <path d="M872.0811,780.1689c0,.2705-.0254.6885-.0742,1.0332l-.7383.3691h-6.4482v.1729c0,2.6328.96,4.6758,3.9873,4.6758.9102,0,1.8457-.1719,2.9043-.6885l.5166.8359c-1.2549.9854-2.7568,1.502-4.2822,1.502-2.8799,0-5.1689-1.7725-5.1689-5.8828,0-3.4209,2.5107-5.9561,5.4639-5.9561,2.2393,0,3.8398,1.3291,3.8398,3.9385ZM870.0625,780.3164c0-1.5264-.6152-2.6338-2.4854-2.6338-1.5752,0-2.3633,1.1816-2.6338,2.6338h5.1191Z" fill="#fff" opacity=".3"/>
      <path d="M881.7539,786.7646l1.3789-.418v-5.3906c0-.9844-.0986-1.6982-.5176-2.1904-.5654-.6641-1.5254-.7627-2.4365-.7627-.7139,0-1.8701.1963-2.3623.3691v7.9004c1.2061.2461,2.5107.6396,2.5107.6396-.0254.3691-.1484.96-.1484.96,0,0-1.8213-.0488-2.9287-.0488-1.083,0-2.9775.0488-2.9775.0488v-1.1562l1.5498-.3945v-7.6787l-2.1162-.8369s.0488-.4434.1719-.9355l3.2734-.4922.4678,1.1816h.0244c1.0586-.7627,2.2646-1.2061,3.8643-1.2061.9355,0,2.0674.1729,2.7568.8613.4678.4678.8613,1.1328.8613,3.4707v5.6855c1.0586.1963,2.166.541,2.166.541,0,.4434-.1719.96-.1719.96,0,0-1.4277-.0488-2.6338-.0488-1.083,0-2.7324.0488-2.7324.0488v-1.1074Z" fill="#fff" opacity=".3"/>
      <path d="M887.9824,778.0029c0-.8125.123-1.1074.123-1.1074l1.5508-.4189,1.1318-2.4609h.9111v2.6582h3.5928v1.3535h-3.6426v6.1035c0,1.3291.0986,2.3135,1.6982,2.3135.96,0,1.8213-.2949,1.8213-.2949l.3945.7627c-.7637.665-1.7969,1.0586-2.9541,1.0586-2.9775,0-2.9775-1.8213-2.9775-4.0859v-5.8818h-1.6494Z" fill="#fff" opacity=".3"/>
      <path d="M899.0586,778.9375c0,2.2158,6.0059,1.8223,6.0059,5.5137,0,2.6094-2.3877,3.5938-4.4062,3.5938-.96,0-2.7812-.2217-3.79-.9844l.3447-2.2158h.8857c.5664,1.1328,1.625,1.748,2.8555,1.748,1.1074,0,2.2637-.2959,2.2637-1.4521,0-1.0342-1.0088-1.6006-2.8789-2.4121-1.7969-.7637-2.9785-1.5508-2.9785-3.2002,0-1.9189,1.8213-3.2979,4.2578-3.2979,1.1318,0,2.166.3203,3.0518.9111l-.4922,1.9189h-.7383c-.7139-.8115-1.4521-1.4023-2.707-1.4023-.9355,0-1.6738.4922-1.6738,1.2793Z" fill="#fff" opacity=".3"/>
      <path d="M783.2441,819.5537c0,.2705-.0254.6885-.0742,1.0332l-.7383.3691h-6.4482v.1729c0,2.6328.96,4.6758,3.9873,4.6758.9102,0,1.8457-.1719,2.9043-.6885l.5166.8359c-1.2549.9854-2.7568,1.502-4.2822,1.502-2.8799,0-5.1689-1.7725-5.1689-5.8828,0-3.4209,2.5107-5.9561,5.4639-5.9561,2.2393,0,3.8398,1.3291,3.8398,3.9385ZM781.2256,819.7012c0-1.5264-.6152-2.6338-2.4854-2.6338-1.5752,0-2.3633,1.1816-2.6338,2.6338h5.1191Z" fill="#fff" opacity=".3"/>
      <path d="M791.3916,821.2021v-1.4521c0-1.6738-.9355-2.4121-2.3633-2.4121-1.083,0-1.7969.1729-2.8545.6406l-.4434-.8613c1.1572-.9854,2.4609-1.4277,3.7656-1.4277,2.5352,0,3.79.96,3.79,4.0117v5.71c.4678.1719,1.4521.5166,1.7969.6641-.0244.3945-.2461,1.083-.2461,1.083-.2949.0498-.541.0742-.96.0742-.8369,0-1.6484-.2217-2.166-1.1318h-.0244c-.7627.8613-1.9443,1.3535-3.5684,1.3535-2.1904,0-3.1504-1.5264-3.1504-2.9043,0-1.1074.3691-2.166,1.8213-2.6582.7871-.2705,2.3379-.4922,4.6025-.6895ZM791.3916,822.4326c-1.3291.123-3.0771.4189-3.5938.5664-.4434.123-.8369.5166-.8369,1.0586,0,.9355.4678,1.7715,2.0674,1.7715.6152,0,1.8457-.1719,2.3877-.6152v-2.7559l-.0244-.0254Z" fill="#fff" opacity=".3"/>
      <path d="M798.8008,818.3223c0,2.2158,6.0059,1.8223,6.0059,5.5137,0,2.6094-2.3877,3.5938-4.4062,3.5938-.96,0-2.7812-.2217-3.79-.9844l.3447-2.2158h.8857c.5664,1.1328,1.625,1.748,2.8555,1.748,1.1074,0,2.2637-.2959,2.2637-1.4521,0-1.0342-1.0088-1.6006-2.8789-2.4121-1.7969-.7637-2.9785-1.5508-2.9785-3.2002,0-1.9189,1.8213-3.2979,4.2578-3.2979,1.1318,0,2.166.3203,3.0518.9111l-.4922,1.9189h-.7383c-.7139-.8115-1.4521-1.4023-2.707-1.4023-.9355,0-1.6738.4922-1.6738,1.2793Z" fill="#fff" opacity=".3"/>
      <path d="M806.5791,826.125l1.8701-.4434v-7.7529l-2.0674-.7139s0-.4424.123-.9346l3.7168-.4189.2217.1729v9.6719c1.2061.2217,2.3379.5908,2.3379.5908,0,.5664-.1475.96-.1475.96,0,0-1.7969-.0488-2.9043-.0488-1.083,0-3.1504.0488-3.1504.0488v-1.1318ZM809.3848,810.4961c.6396,0,1.3291.3936,1.3291,1.3291,0,.7627-.418,1.4521-1.3535,1.4521-.6895,0-1.3535-.4678-1.3535-1.3535,0-.8369.4922-1.4277,1.3779-1.4277Z" fill="#fff" opacity=".3"/>
      <path d="M813.7178,826.1494l1.7969-.4678v-13.8564l-2.2402-.542c-.0488-.123-.0488-.3193-.0488-.4668,0-.2471.0244-.4678.0244-.4678l2.8555-.5176,1.3779.3945v15.5059c1.2061.1963,2.5107.5654,2.5107.5654,0,.542-.1475.96-.1475.96,0,0-1.7725-.0488-3.0273-.0488-1.2305,0-3.1016.0488-3.1016.0488v-1.1074Z" fill="#fff" opacity=".3"/>
      <path d="M820.6836,830.0137h.4922c.5908.3691.9355.541,1.7236.541,1.1807,0,1.9443-1.3779,2.707-3.3711v-.0254c-.123,0-.5166-.0244-.7139-.123l-4.0361-9.5244c-.5664-.2461-1.1074-.5664-1.1074-.5664,0-.4678.123-.9102.123-.9102h5.1191v1.0088l-1.9688.4434v.0244l3.1992,7.9746h.0244c.7881-2.2402,2.3389-5.9814,2.9287-7.8516v-.0244c-.8613-.1729-2.166-.7139-2.166-.7139,0-.3945.0986-.8613.0986-.8613h5.0459v1.083l-1.3047.4668c-.6396,1.7725-3.0029,8.1475-3.8887,10.3379-.8125,1.9932-1.9443,4.5283-4.4297,4.5283-.8623,0-1.7725-.1475-2.4863-.6641,0,0,.418-1.0586.6396-1.7725Z" fill="#fff" opacity=".3"/>
      <path d="M844.6826,815.6152c1.0586,0,2.5352.1973,3.2734.96l-.5664,2.0674-.6152-.0244c-.8369-.7627-1.6484-1.4766-2.9531-1.4766-2.0928,0-2.8555,1.8213-2.8555,4.1104,0,2.6582,1.2305,4.5283,4.0117,4.5283,1.2061,0,1.9443-.2461,2.8311-.7627l.5654.8115c-1.1318,1.0586-2.6582,1.625-4.3066,1.625-3.2246,0-5.1934-2.166-5.1934-5.8086s2.6338-6.0303,5.8086-6.0303Z" fill="#fff" opacity=".3"/>
      <path d="M855.3906,815.665c2.8057,0,5.3652,1.7227,5.3652,5.5869,0,3.6914-2.166,6.2021-5.5869,6.2021-3.126,0-5.292-1.9941-5.292-6.1045,0-3.1504,2.2891-5.6846,5.5137-5.6846ZM855.4395,825.9775c2.2891,0,3.2002-1.8467,3.2002-4.1846,0-2.707-1.2061-4.6758-3.3477-4.6758-2.2891,0-3.2734,1.4512-3.2734,3.8633,0,3.3232,1.3779,4.9971,3.4209,4.9971Z" fill="#fff" opacity=".3"/>
      <path d="M862.1855,826.1494l1.7969-.4678v-13.8564l-2.2402-.542c-.0488-.123-.0488-.3193-.0488-.4668,0-.2471.0244-.4678.0244-.4678l2.8555-.5176,1.3779.3945v15.5059c1.2061.1963,2.5107.5654,2.5107.5654,0,.542-.1475.96-.1475.96,0,0-1.7725-.0488-3.0273-.0488-1.2305,0-3.1016.0488-3.1016.0488v-1.1074Z" fill="#fff" opacity=".3"/>
      <path d="M869.25,826.1494l1.7969-.4678v-13.8564l-2.2402-.542c-.0488-.123-.0488-.3193-.0488-.4668,0-.2471.0244-.4678.0244-.4678l2.8555-.5176,1.3779.3945v15.5059c1.2061.1963,2.5107.5654,2.5107.5654,0,.542-.1475.96-.1475.96,0,0-1.7725-.0488-3.0273-.0488-1.2305,0-3.1016.0488-3.1016.0488v-1.1074Z" fill="#fff" opacity=".3"/>
      <path d="M885.8398,819.5537c0,.2705-.0254.6885-.0742,1.0332l-.7383.3691h-6.4482v.1729c0,2.6328.96,4.6758,3.9873,4.6758.9102,0,1.8457-.1719,2.9043-.6885l.5166.8359c-1.2549.9854-2.7568,1.502-4.2822,1.502-2.8799,0-5.1689-1.7725-5.1689-5.8828,0-3.4209,2.5107-5.9561,5.4639-5.9561,2.2393,0,3.8398,1.3291,3.8398,3.9385ZM883.8213,819.7012c0-1.5264-.6152-2.6338-2.4854-2.6338-1.5752,0-2.3633,1.1816-2.6338,2.6338h5.1191Z" fill="#fff" opacity=".3"/>
      <path d="M893.3965,815.6152c1.0586,0,2.5352.1973,3.2734.96l-.5664,2.0674-.6152-.0244c-.8369-.7627-1.6494-1.4766-2.9531-1.4766-2.0928,0-2.8555,1.8213-2.8555,4.1104,0,2.6582,1.2305,4.5283,4.0117,4.5283,1.2061,0,1.9443-.2461,2.8311-.7627l.5654.8115c-1.1318,1.0586-2.6582,1.625-4.3066,1.625-3.2246,0-5.1934-2.166-5.1934-5.8086s2.6338-6.0303,5.8086-6.0303Z" fill="#fff" opacity=".3"/>
      <path d="M898.1973,817.3877c0-.8125.123-1.1074.123-1.1074l1.5508-.4189,1.1318-2.4609h.9111v2.6582h3.5928v1.3535h-3.6426v6.1035c0,1.3291.0986,2.3135,1.6982,2.3135.96,0,1.8213-.2949,1.8213-.2949l.3945.7627c-.7637.665-1.7969,1.0586-2.9541,1.0586-2.9775,0-2.9775-1.8213-2.9775-4.0859v-5.8818h-1.6494Z" fill="#fff" opacity=".3"/>
      <path d="M704.9922,865.5098l1.3047-.4189v-5.168c0-2.6582-1.0342-3.1748-2.6826-3.1748-.96,0-2.0186.2949-2.4365.4922v7.8262c1.1807.2217,2.4854.5908,2.4854.5908,0,.3691-.1475.9844-.1475.9844,0,0-1.7227-.0488-2.9287-.0488-1.1328,0-2.9287.0488-2.9287.0488v-1.1318l1.5498-.4434v-7.6787l-2.1406-.8125s.0488-.418.1719-.9102l3.2734-.5176.4678,1.1816h.0244c.9355-.7627,2.2891-1.2061,3.9385-1.2061.9102,0,2.3623.2217,2.8789,1.3047h.0254c1.1318-.7627,2.5098-1.2803,4.0361-1.2803,1.2549,0,2.1416.2959,2.7812,1.0342.3936.4678.7383,1.083.7383,3.4209v5.5137c1.0586.1963,2.166.541,2.166.541,0,.4434-.1475.9844-.1475.9844,0,0-1.4033-.0488-2.5596-.0488h-.9111c-.96,0-1.9688.0488-1.9688.0488v-1.1074l1.4277-.418v-5.3408c0-2.5107-.96-2.9541-2.6836-2.9541-.96,0-1.8701.2705-2.4609.4922v7.7773c1.1816.2217,2.4121.5664,2.4121.5664,0,.4189-.123.9844-.123.9844,0,0-1.6494-.0488-2.8799-.0488-1.1074,0-2.6826.0488-2.6826.0488v-1.1318Z" fill="#fff" opacity=".3"/>
      <path d="M725.1035,860.5869v-1.4521c0-1.6738-.9355-2.4121-2.3633-2.4121-1.083,0-1.7969.1729-2.8545.6406l-.4434-.8613c1.1572-.9854,2.4609-1.4277,3.7656-1.4277,2.5352,0,3.79.96,3.79,4.0117v5.71c.4678.1719,1.4521.5166,1.7969.6641-.0244.3945-.2461,1.083-.2461,1.083-.2949.0498-.541.0742-.96.0742-.8369,0-1.6484-.2217-2.166-1.1318h-.0244c-.7627.8613-1.9443,1.3535-3.5684,1.3535-2.1904,0-3.1504-1.5264-3.1504-2.9043,0-1.1074.3691-2.166,1.8213-2.6582.7871-.2705,2.3379-.4922,4.6025-.6895ZM725.1035,861.8174c-1.3291.123-3.0771.4189-3.5938.5664-.4434.123-.8369.5166-.8369,1.0586,0,.9355.4678,1.7715,2.0674,1.7715.6152,0,1.8457-.1719,2.3877-.6152v-2.7559l-.0244-.0254Z" fill="#fff" opacity=".3"/>
      <path d="M729.584,856.7725c0-.8125.123-1.1074.123-1.1074l1.5508-.4189,1.1318-2.4609h.9111v2.6582h3.5928v1.3535h-3.6426v6.1035c0,1.3291.0986,2.3135,1.6982,2.3135.96,0,1.8213-.2949,1.8213-.2949l.3945.7627c-.7637.665-1.7969,1.0586-2.9541,1.0586-2.9775,0-2.9775-1.8213-2.9775-4.0859v-5.8818h-1.6494Z" fill="#fff" opacity=".3"/>
      <path d="M747.5273,858.9385c0,.2705-.0254.6885-.0742,1.0332l-.7383.3691h-6.4482v.1729c0,2.6328.96,4.6758,3.9873,4.6758.9102,0,1.8457-.1719,2.9043-.6885l.5166.8359c-1.2549.9854-2.7568,1.502-4.2822,1.502-2.8799,0-5.1689-1.7725-5.1689-5.8828,0-3.4209,2.5107-5.9561,5.4639-5.9561,2.2393,0,3.8398,1.3291,3.8398,3.9385ZM745.5088,859.0859c0-1.5264-.6152-2.6338-2.4854-2.6338-1.5752,0-2.3633,1.1816-2.6338,2.6338h5.1191Z" fill="#fff" opacity=".3"/>
      <path d="M749.6934,865.4854l1.5752-.3945v-7.5068l-2.0918-.9102c0-.3936,0-.542.0986-.9111l3.1504-.541.6895,1.7471h.0244c.6396-.9346,1.5996-1.7959,2.8799-1.7959.5654,0,1.1562.1963,1.5498.541l-.418,1.9199-.6895.1475c-.5654-.2949-1.0586-.4434-1.624-.4434-.5664,0-1.0586.1973-1.5752.4678v7.2852c1.2061.1484,2.5596.5664,2.5596.5664,0,.5664-.123.9844-.123.9844,0,0-1.9443-.0488-3.1016-.0488-1.2061,0-2.9043.0488-2.9043.0488v-1.1562Z" fill="#fff" opacity=".3"/>
      <path d="M758.6045,865.5098l1.8701-.4434v-7.7529l-2.0674-.7139s0-.4424.123-.9346l3.7168-.4189.2217.1729v9.6719c1.2061.2217,2.3379.5908,2.3379.5908,0,.5664-.1475.96-.1475.96,0,0-1.7969-.0488-2.9043-.0488-1.083,0-3.1504.0488-3.1504.0488v-1.1318ZM761.4102,849.8809c.6396,0,1.3291.3936,1.3291,1.3291,0,.7627-.418,1.4521-1.3535,1.4521-.6895,0-1.3535-.4678-1.3535-1.3535,0-.8369.4922-1.4277,1.3779-1.4277Z" fill="#fff" opacity=".3"/>
      <path d="M772.4873,860.5869v-1.4521c0-1.6738-.9355-2.4121-2.3633-2.4121-1.083,0-1.7969.1729-2.8545.6406l-.4434-.8613c1.1572-.9854,2.4609-1.4277,3.7656-1.4277,2.5352,0,3.79.96,3.79,4.0117v5.71c.4678.1719,1.4521.5166,1.7969.6641-.0244.3945-.2461,1.083-.2461,1.083-.2949.0498-.541.0742-.96.0742-.8369,0-1.6484-.2217-2.166-1.1318h-.0244c-.7627.8613-1.9443,1.3535-3.5684,1.3535-2.1904,0-3.1504-1.5264-3.1504-2.9043,0-1.1074.3691-2.166,1.8213-2.6582.7871-.2705,2.3379-.4922,4.6025-.6895ZM772.4873,861.8174c-1.3291.123-3.0771.4189-3.5938.5664-.4434.123-.8369.5166-.8369,1.0586,0,.9355.4678,1.7715,2.0674,1.7715.6152,0,1.8457-.1719,2.3877-.6152v-2.7559l-.0244-.0254Z" fill="#fff" opacity=".3"/>
      <path d="M777.2627,865.5342l1.7969-.4678v-13.8564l-2.2402-.542c-.0488-.123-.0488-.3193-.0488-.4668,0-.2471.0244-.4678.0244-.4678l2.8555-.5176,1.3779.3945v15.5059c1.2061.1963,2.5107.5654,2.5107.5654,0,.542-.1475.96-.1475.96,0,0-1.7725-.0488-3.0273-.0488-1.2305,0-3.1016.0488-3.1016.0488v-1.1074Z" fill="#fff" opacity=".3"/>
      <path d="M786.9854,857.707c0,2.2158,6.0059,1.8223,6.0059,5.5137,0,2.6094-2.3877,3.5938-4.4062,3.5938-.96,0-2.7812-.2217-3.79-.9844l.3447-2.2158h.8857c.5664,1.1328,1.624,1.748,2.8555,1.748,1.1074,0,2.2637-.2959,2.2637-1.4521,0-1.0342-1.0088-1.6006-2.8789-2.4121-1.7969-.7637-2.9785-1.5508-2.9785-3.2002,0-1.9189,1.8213-3.2979,4.2578-3.2979,1.1318,0,2.166.3203,3.0518.9111l-.4922,1.9189h-.7383c-.7139-.8115-1.4521-1.4023-2.707-1.4023-.9355,0-1.6738.4922-1.6738,1.2793Z" fill="#fff" opacity=".3"/>
      <path d="M798.4561,865.2139c0,.8623-.5166,1.6006-1.5264,1.6006-.8857,0-1.5752-.6406-1.5752-1.5264,0-.9844.5166-1.624,1.5508-1.624.8857,0,1.5508.541,1.5508,1.5498Z" fill="#fff" opacity=".3"/>
      <path d="M814.5781,852.7607c-.5664-.3203-1.2793-.4922-2.3877-.4922-1.7227,0-2.707.7871-2.707,1.9443,0,3.4209,7.999,3.1748,7.999,7.9736,0,2.6836-2.1416,4.7998-5.71,4.7998-1.7471,0-3.5938-.3447-5.0947-1.4033l.541-3.1748s.123-.0244.3691-.0244c.1973,0,.4678.0244.8125.0742l.5166,2.2891c.7139.3936,1.9199.6885,3.0527.6885,1.4023,0,3.3711-.5654,3.3711-2.6582,0-3.7412-7.8506-3.4453-7.8506-7.9004,0-2.1162,1.8945-4.0859,4.7256-4.0859,1.7471,0,3.1748.2217,4.4053.7637v3.4209s-.2949.0986-.7383.0986c-.0986,0-.2217,0-.3447-.0244l-.96-2.2891Z" fill="#fff" opacity=".3"/>
      <path d="M826.9355,865.5098l1.3047-.4189v-5.168c0-2.6582-1.0342-3.1748-2.6826-3.1748-.96,0-2.0186.2949-2.4365.4922v7.8262c1.1807.2217,2.4854.5908,2.4854.5908,0,.3691-.1475.9844-.1475.9844,0,0-1.7227-.0488-2.9287-.0488-1.1328,0-2.9287.0488-2.9287.0488v-1.1318l1.5498-.4434v-7.6787l-2.1406-.8125s.0488-.418.1719-.9102l3.2734-.5176.4678,1.1816h.0244c.9355-.7627,2.2891-1.2061,3.9385-1.2061.9102,0,2.3623.2217,2.8789,1.3047h.0254c1.1318-.7627,2.5098-1.2803,4.0361-1.2803,1.2549,0,2.1416.2959,2.7812,1.0342.3936.4678.7383,1.083.7383,3.4209v5.5137c1.0586.1963,2.166.541,2.166.541,0,.4434-.1475.9844-.1475.9844,0,0-1.4033-.0488-2.5596-.0488h-.9111c-.96,0-1.9688.0488-1.9688.0488v-1.1074l1.4277-.418v-5.3408c0-2.5107-.96-2.9541-2.6836-2.9541-.96,0-1.8701.2705-2.4609.4922v7.7773c1.1816.2217,2.4121.5664,2.4121.5664,0,.4189-.123.9844-.123.9844,0,0-1.6494-.0488-2.8799-.0488-1.1074,0-2.6826.0488-2.6826.0488v-1.1318Z" fill="#fff" opacity=".3"/>
      <path d="M847.0469,860.5869v-1.4521c0-1.6738-.9355-2.4121-2.3633-2.4121-1.083,0-1.7969.1729-2.8545.6406l-.4434-.8613c1.1572-.9854,2.4609-1.4277,3.7656-1.4277,2.5352,0,3.79.96,3.79,4.0117v5.71c.4678.1719,1.4521.5166,1.7969.6641-.0244.3945-.2461,1.083-.2461,1.083-.2949.0498-.541.0742-.96.0742-.8369,0-1.6484-.2217-2.166-1.1318h-.0244c-.7627.8613-1.9443,1.3535-3.5684,1.3535-2.1904,0-3.1504-1.5264-3.1504-2.9043,0-1.1074.3691-2.166,1.8213-2.6582.7871-.2705,2.3379-.4922,4.6025-.6895ZM847.0469,861.8174c-1.3291.123-3.0771.4189-3.5938.5664-.4434.123-.8369.5166-.8369,1.0586,0,.9355.4678,1.7715,2.0674,1.7715.6152,0,1.8457-.1719,2.3877-.6152v-2.7559l-.0244-.0254Z" fill="#fff" opacity=".3"/>
      <path d="M852.3389,865.4854l1.5752-.3945v-7.5068l-2.0918-.9102c0-.3936,0-.542.0986-.9111l3.1504-.541.6895,1.7471h.0244c.6396-.9346,1.5996-1.7959,2.8799-1.7959.5654,0,1.1562.1963,1.5498.541l-.418,1.9199-.6895.1475c-.5654-.2949-1.0586-.4434-1.624-.4434-.5664,0-1.0586.1973-1.5752.4678v7.2852c1.2061.1484,2.5596.5664,2.5596.5664,0,.5664-.123.9844-.123.9844,0,0-1.9443-.0488-3.1016-.0488-1.2061,0-2.9043.0488-2.9043.0488v-1.1562Z" fill="#fff" opacity=".3"/>
      <path d="M860.9053,856.7725c0-.8125.123-1.1074.123-1.1074l1.5508-.4189,1.1318-2.4609h.9111v2.6582h3.5928v1.3535h-3.6426v6.1035c0,1.3291.0986,2.3135,1.6982,2.3135.96,0,1.8213-.2949,1.8213-.2949l.3945.7627c-.7637.665-1.7969,1.0586-2.9541,1.0586-2.9775,0-2.9775-1.8213-2.9775-4.0859v-5.8818h-1.6494Z" fill="#fff" opacity=".3"/>
      <path d="M881.0391,854.6309s-.6152.0986-1.0586.0986l-1.0586-2.1904h-5.168v5.5381h5.2422c0,.9346-.1973,1.8945-.1973,1.8945l-1.7969-.3447h-3.248v5.292c1.0332.1475,3.0762.6152,3.0762.6152-.0244.4434-.1475,1.1074-.1475,1.1074,0,0-2.8311-.0244-3.9385-.0244-1.083,0-3.0762.0244-3.0762.0244v-1.1562l1.9688-.4922v-12.4297c-.5908-.0986-1.7227-.3447-2.0918-.5166,0-.542.123-1.0098.123-1.0098h11.3711v3.5938Z" fill="#fff" opacity=".3"/>
      <path d="M887.7354,855.0498c2.8057,0,5.3652,1.7227,5.3652,5.5869,0,3.6914-2.166,6.2021-5.5869,6.2021-3.126,0-5.292-1.9941-5.292-6.1045,0-3.1504,2.2891-5.6846,5.5137-5.6846ZM887.7842,865.3623c2.2891,0,3.2002-1.8467,3.2002-4.1846,0-2.707-1.2061-4.6758-3.3477-4.6758-2.2891,0-3.2734,1.4512-3.2734,3.8633,0,3.3232,1.3779,4.9971,3.4209,4.9971Z" fill="#fff" opacity=".3"/>
      <path d="M894.627,855.4189h4.4551v.8857l-1.2793.2949v.0254l2.2393,2.9043h.0244l2.166-2.7324v-.0244c-.7627-.2217-1.6484-.542-1.6484-.542,0-.3936.123-.8115.123-.8115h4.5039v.96l-1.0586.3193c-.8125,1.1074-2.6084,3.2979-3.1992,4.0117l3.5439,4.5039,1.4766.4434c0,.4678-.123.9844-.123.9844,0,0-1.3779-.0488-2.4854-.0488-1.2061,0-2.6582.0488-2.6582.0488v-.9844l1.5498-.3447v-.0244l-2.5098-3.1992h-.0244l-2.5605,3.0518v.0244c.9111.1973,2.043.4922,2.043.4922,0,.3936-.1475.9844-.1475.9844,0,0-1.2061-.0488-2.4121-.0488-.9355,0-2.4854.0488-2.4854.0488v-1.083l1.0576-.3936,3.5938-4.2334-3.2734-4.2334-1.0342-.4434c0-.3691.123-.8359.123-.8359Z" fill="#fff" opacity=".3"/>
      <path d="M717.0303,899.9717v-1.4521c0-1.6738-.9355-2.4121-2.3633-2.4121-1.083,0-1.7969.1729-2.8545.6406l-.4434-.8613c1.1572-.9854,2.4609-1.4277,3.7656-1.4277,2.5352,0,3.79.96,3.79,4.0117v5.71c.4678.1719,1.4521.5166,1.7969.6641-.0244.3945-.2461,1.083-.2461,1.083-.2949.0498-.541.0742-.96.0742-.8369,0-1.6484-.2217-2.166-1.1318h-.0244c-.7627.8613-1.9443,1.3535-3.5684,1.3535-2.1904,0-3.1504-1.5264-3.1504-2.9043,0-1.1074.3691-2.166,1.8213-2.6582.7871-.2705,2.3379-.4922,4.6025-.6895ZM717.0303,901.2021c-1.3291.123-3.0771.4189-3.5938.5664-.4434.123-.8369.5166-.8369,1.0586,0,.9355.4678,1.7715,2.0674,1.7715.6152,0,1.8457-.1719,2.3877-.6152v-2.7559l-.0244-.0254Z" fill="#fff" opacity=".6"/>
      <path d="M727.8604,900.1689c0-3.3477,2.7324-5.7842,5.8584-5.7842.7139,0,1.5752.0986,2.2148.3203h.0244v-4.1846l-2.2646-.4922c-.0244-.0986-.0244-.2461-.0244-.3691,0-.2705.0244-.5166.0244-.5166l2.6582-.542,1.6006.3203v15.2109l1.9932.4922s-.0488.3691-.123.8115l-3.0518.6406-.5664-1.1816h-.0244c-.8613.9355-2.3135,1.3047-3.2979,1.3047-3.5195,0-5.0215-2.4121-5.0215-6.0303ZM733.5957,904.501c.8613,0,1.7959-.1484,2.3623-.542v-6.9902c-.7871-.6396-1.6982-1.1562-3.0273-1.1562-2.2393,0-3.0273,2.1904-3.0273,4.1104,0,2.5596,1.1074,4.5781,3.6924,4.5781Z" fill="#fff" opacity=".6"/>
      <path d="M741.3008,904.8945l1.8701-.4434v-7.7529l-2.0674-.7139s0-.4424.123-.9346l3.7168-.4189.2217.1729v9.6719c1.2061.2217,2.3379.5908,2.3379.5908,0,.5664-.1475.96-.1475.96,0,0-1.7969-.0488-2.9043-.0488-1.083,0-3.1504.0488-3.1504.0488v-1.1318ZM744.1064,889.2656c.6396,0,1.3291.3936,1.3291,1.3291,0,.7627-.418,1.4521-1.3535,1.4521-.6895,0-1.3535-.4678-1.3535-1.3535,0-.8369.4922-1.4277,1.3779-1.4277Z" fill="#fff" opacity=".6"/>
      <path d="M750.7041,905.0664c-.6152-.3193-.96-.7383-.96-1.6982,0-.3447.0732-.7383.2217-1.1318l.8369-.6895c-1.0342-.5166-1.8213-1.5996-1.8213-3.3965,0-2.3135,2.2148-3.79,4.7744-3.79,1.3779,0,2.6582.3691,3.4209,1.2549.5908-.5654,1.1572-1.1074,2.2891-1.1074.3936,0,.6895.0742.8369.1729l-.1973,1.4521-2.3623.3193v.0498c.1719.4922.2705,1.0088.2705,1.6982,0,2.5352-2.2148,3.8643-4.6025,3.8643-.6641,0-1.2061-.0742-1.7471-.1973h-.0986c-.123.2705-.123.4678-.123.7383,0,.6152.6152.8369,1.501,1.0088,2.6338.542,6.1289.1729,6.1289,3.4219,0,2.2881-2.2891,4.627-6.1045,4.627-2.2637,0-4.5527-.8867-4.5527-3.4951,0-1.4521,1.1074-2.6338,2.2891-3.1016ZM751.9102,905.3125c-1.0342.6895-1.4521,1.4521-1.4521,2.3877,0,1.6738,1.5752,2.4863,3.1992,2.4863,2.1904,0,3.4951-1.1572,3.4951-2.7324,0-.9844-.4922-1.5752-2.0674-1.8457-1.3779-.2217-2.166-.1475-3.1748-.2959ZM753.584,900.8584c1.4268,0,2.3379-.7637,2.3379-2.5352,0-1.502-.7139-2.7812-2.5596-2.7812-1.3535,0-2.3633.8613-2.3633,2.4365,0,1.3535.5664,2.8799,2.585,2.8799Z" fill="#fff" opacity=".6"/>
      <path d="M761.1904,904.8945l1.8701-.4434v-7.7529l-2.0674-.7139s0-.4424.123-.9346l3.7168-.4189.2217.1729v9.6719c1.2061.2217,2.3379.5908,2.3379.5908,0,.5664-.1475.96-.1475.96,0,0-1.7969-.0488-2.9043-.0488-1.083,0-3.1504.0488-3.1504.0488v-1.1318ZM763.9961,889.2656c.6396,0,1.3291.3936,1.3291,1.3291,0,.7627-.418,1.4521-1.3535,1.4521-.6895,0-1.3535-.4678-1.3535-1.3535,0-.8369.4922-1.4277,1.3779-1.4277Z" fill="#fff" opacity=".6"/>
      <path d="M768.2061,896.1572c0-.8125.123-1.1074.123-1.1074l1.5508-.4189,1.1318-2.4609h.9111v2.6582h3.5928v1.3535h-3.6426v6.1035c0,1.3291.0986,2.3135,1.6982,2.3135.96,0,1.8213-.2949,1.8213-.2949l.3945.7627c-.7637.665-1.7969,1.0586-2.9541,1.0586-2.9775,0-2.9775-1.8213-2.9775-4.0859v-5.8818h-1.6494Z" fill="#fff" opacity=".6"/>
      <path d="M783.3682,899.9717v-1.4521c0-1.6738-.9355-2.4121-2.3633-2.4121-1.083,0-1.7969.1729-2.8545.6406l-.4434-.8613c1.1572-.9854,2.4609-1.4277,3.7656-1.4277,2.5352,0,3.79.96,3.79,4.0117v5.71c.4678.1719,1.4521.5166,1.7969.6641-.0244.3945-.2461,1.083-.2461,1.083-.2949.0498-.541.0742-.96.0742-.8369,0-1.6484-.2217-2.166-1.1318h-.0244c-.7627.8613-1.9443,1.3535-3.5684,1.3535-2.1904,0-3.1504-1.5264-3.1504-2.9043,0-1.1074.3691-2.166,1.8213-2.6582.7871-.2705,2.3379-.4922,4.6025-.6895ZM783.3682,901.2021c-1.3291.123-3.0771.4189-3.5938.5664-.4434.123-.8369.5166-.8369,1.0586,0,.9355.4678,1.7715,2.0674,1.7715.6152,0,1.8457-.1719,2.3877-.6152v-2.7559l-.0244-.0254Z" fill="#fff" opacity=".6"/>
      <path d="M788.1436,904.9189l1.7969-.4678v-13.8564l-2.2402-.542c-.0488-.123-.0488-.3193-.0488-.4668,0-.2471.0244-.4678.0244-.4678l2.8555-.5176,1.3779.3945v15.5059c1.2061.1963,2.5107.5654,2.5107.5654,0,.542-.1475.96-.1475.96,0,0-1.7725-.0488-3.0273-.0488-1.2305,0-3.1016.0488-3.1016.0488v-1.1074Z" fill="#fff" opacity=".6"/>
      <path d="M800.8691,904.9189l1.7969-.4678v-13.8564l-2.2402-.542c-.0488-.123-.0488-.3193-.0488-.4668,0-.2471.0244-.4678.0244-.4678l2.8555-.5176,1.3779.3945v15.5059c1.2061.1963,2.5107.5654,2.5107.5654,0,.542-.1475.96-.1475.96,0,0-1.7725-.0488-3.0273-.0488-1.2305,0-3.1016.0488-3.1016.0488v-1.1074Z" fill="#fff" opacity=".6"/>
      <path d="M808.1553,904.8945l1.8701-.4434v-7.7529l-2.0674-.7139s0-.4424.123-.9346l3.7168-.4189.2217.1729v9.6719c1.2061.2217,2.3379.5908,2.3379.5908,0,.5664-.1475.96-.1475.96,0,0-1.7969-.0488-2.9043-.0488-1.083,0-3.1504.0488-3.1504.0488v-1.1318ZM810.9609,889.2656c.6396,0,1.3291.3936,1.3291,1.3291,0,.7627-.418,1.4521-1.3535,1.4521-.6895,0-1.3535-.4678-1.3535-1.3535,0-.8369.4922-1.4277,1.3779-1.4277Z" fill="#fff" opacity=".6"/>
      <path d="M816.5986,905.1162v-14.6201l-2.1416-.418c-.0244-.1484-.0488-.3203-.0488-.4922,0-.2217.0244-.3945.0244-.3945l2.5596-.5908,1.5996.3203v6.5713h.0244c.7881-.5908,1.6992-.9346,2.9785-.9346,3.4463,0,5.0459,2.2881,5.0459,5.4385,0,3.5693-2.4619,6.2764-5.7354,6.2764-1.3779,0-2.8057-.1475-4.3066-1.1562ZM820.709,896.1328c-.8125,0-1.5752.123-2.1172.2949v7.2607c.7881.9102,1.9443,1.083,2.7812,1.083,2.4365,0,3.1748-2.1416,3.1748-4.1592,0-2.6338-1.1318-4.4795-3.8389-4.4795Z" fill="#fff" opacity=".6"/>
      <path d="M828.4629,904.8701l1.5752-.3945v-7.5068l-2.0918-.9102c0-.3936,0-.542.0986-.9111l3.1504-.541.6895,1.7471h.0244c.6396-.9346,1.5996-1.7959,2.8799-1.7959.5654,0,1.1562.1963,1.5498.541l-.418,1.9199-.6895.1475c-.5654-.2949-1.0586-.4434-1.624-.4434-.5664,0-1.0586.1973-1.5752.4678v7.2852c1.2061.1484,2.5596.5664,2.5596.5664,0,.5664-.123.9844-.123.9844,0,0-1.9443-.0488-3.1016-.0488-1.2061,0-2.9043.0488-2.9043.0488v-1.1562Z" fill="#fff" opacity=".6"/>
      <path d="M843.6758,899.9717v-1.4521c0-1.6738-.9355-2.4121-2.3633-2.4121-1.083,0-1.7969.1729-2.8545.6406l-.4434-.8613c1.1572-.9854,2.4609-1.4277,3.7656-1.4277,2.5352,0,3.79.96,3.79,4.0117v5.71c.4678.1719,1.4521.5166,1.7969.6641-.0244.3945-.2461,1.083-.2461,1.083-.2949.0498-.541.0742-.96.0742-.8369,0-1.6484-.2217-2.166-1.1318h-.0244c-.7627.8613-1.9443,1.3535-3.5684,1.3535-2.1904,0-3.1504-1.5264-3.1504-2.9043,0-1.1074.3691-2.166,1.8213-2.6582.7871-.2705,2.3379-.4922,4.6025-.6895ZM843.6758,901.2021c-1.3291.123-3.0771.4189-3.5938.5664-.4434.123-.8369.5166-.8369,1.0586,0,.9355.4678,1.7715,2.0674,1.7715.6152,0,1.8457-.1719,2.3877-.6152v-2.7559l-.0244-.0254Z" fill="#fff" opacity=".6"/>
      <path d="M848.9678,904.8701l1.5752-.3945v-7.5068l-2.0918-.9102c0-.3936,0-.542.0986-.9111l3.1504-.541.6895,1.7471h.0244c.6396-.9346,1.5996-1.7959,2.8799-1.7959.5654,0,1.1562.1963,1.5498.541l-.418,1.9199-.6895.1475c-.5654-.2949-1.0586-.4434-1.624-.4434-.5664,0-1.0586.1973-1.5752.4678v7.2852c1.2061.1484,2.5596.5664,2.5596.5664,0,.5664-.123.9844-.123.9844,0,0-1.9443-.0488-3.1016-.0488-1.2061,0-2.9043.0488-2.9043.0488v-1.1562Z" fill="#fff" opacity=".6"/>
      <path d="M858.1982,908.7832h.4922c.5908.3691.9355.541,1.7236.541,1.1807,0,1.9443-1.3779,2.707-3.3711v-.0254c-.123,0-.5166-.0244-.7139-.123l-4.0361-9.5244c-.5664-.2461-1.1074-.5664-1.1074-.5664,0-.4678.123-.9102.123-.9102h5.1191v1.0088l-1.9688.4434v.0244l3.1992,7.9746h.0244c.7881-2.2402,2.3379-5.9814,2.9287-7.8516v-.0244c-.8613-.1729-2.165-.7139-2.165-.7139,0-.3945.0977-.8613.0977-.8613h5.0459v1.083l-1.3047.4668c-.6396,1.7725-3.0029,8.1475-3.8887,10.3379-.8125,1.9932-1.9443,4.5283-4.4297,4.5283-.8623,0-1.7725-.1475-2.4863-.6641,0,0,.418-1.0586.6396-1.7725Z" fill="#fff" opacity=".6"/>
      <path d="M872.623,904.5986c0,.8623-.5166,1.6006-1.5264,1.6006-.8857,0-1.5752-.6406-1.5752-1.5264,0-.9844.5166-1.624,1.5508-1.624.8857,0,1.5508.541,1.5508,1.5498Z" fill="#fff" opacity=".6"/>
      <path d="M874.8877,894.8037h4.4551v.8857l-1.2793.2949v.0254l2.2393,2.9043h.0244l2.166-2.7324v-.0244c-.7627-.2217-1.6484-.542-1.6484-.542,0-.3936.123-.8115.123-.8115h4.5039v.96l-1.0586.3193c-.8125,1.1074-2.6084,3.2979-3.1992,4.0117l3.5439,4.5039,1.4766.4434c0,.4678-.123.9844-.123.9844,0,0-1.3779-.0488-2.4854-.0488-1.2061,0-2.6582.0488-2.6582.0488v-.9844l1.5498-.3447v-.0244l-2.5098-3.1992h-.0244l-2.5605,3.0518v.0244c.9111.1973,2.043.4922,2.043.4922,0,.3936-.1475.9844-.1475.9844,0,0-1.2061-.0488-2.4121-.0488-.9355,0-2.4854.0488-2.4854.0488v-1.083l1.0576-.3936,3.5938-4.2334-3.2734-4.2334-1.0342-.4434c0-.3691.123-.8359.123-.8359Z" fill="none" opacity=".6"/>
      <path d="M887.2686,894.8037h4.4551v.8857l-1.2793.2949v.0254l2.2393,2.9043h.0244l2.166-2.7324v-.0244c-.7627-.2217-1.6484-.542-1.6484-.542,0-.3936.123-.8115.123-.8115h4.5039v.96l-1.0586.3193c-.8125,1.1074-2.6084,3.2979-3.1992,4.0117l3.5439,4.5039,1.4766.4434c0,.4678-.123.9844-.123.9844,0,0-1.3779-.0488-2.4854-.0488-1.2061,0-2.6582.0488-2.6582.0488v-.9844l1.5498-.3447v-.0244l-2.5098-3.1992h-.0244l-2.5605,3.0518v.0244c.9111.1973,2.043.4922,2.043.4922,0,.3936-.1475.9844-.1475.9844,0,0-1.2061-.0488-2.4121-.0488-.9355,0-2.4854.0488-2.4854.0488v-1.083l1.0576-.3936,3.5938-4.2334-3.2734-4.2334-1.0342-.4434c0-.3691.123-.8359.123-.8359Z" fill="none" opacity=".6"/>
      <path d="M899.4785,904.8945l1.8701-.4434v-7.7529l-2.0674-.7139s0-.4424.123-.9346l3.7168-.4189.2217.1729v9.6719c1.2061.2217,2.3379.5908,2.3379.5908,0,.5664-.1475.96-.1475.96,0,0-1.7969-.0488-2.9043-.0488-1.083,0-3.1504.0488-3.1504.0488v-1.1318ZM902.2842,889.2656c.6396,0,1.3291.3936,1.3291,1.3291,0,.7627-.418,1.4521-1.3535,1.4521-.6895,0-1.3535-.4678-1.3535-1.3535,0-.8369.4922-1.4277,1.3779-1.4277Z" fill="none" opacity=".6"/>
    </g>
  </g>
</svg>