<?xml version="1.0" encoding="UTF-8"?><svg xmlns="http://www.w3.org/2000/svg" width="28" height="28" viewBox="0 0 28 28"><defs><style>.c{opacity:.12;}.c,.d{fill:#fff;}.e{fill:#39bf68;}.d{opacity:.6;}</style></defs><g id="a"><rect x="-8575" y="-8463" width="16383" height="16383"/></g><g id="b"><rect class="c" x="4" y="11" width="6" height="3"/><rect class="c" x="11" y="11" width="6" height="3"/><rect class="c" x="18" y="11" width="6" height="3"/><rect class="c" x="18" y="15" width="6" height="3"/><rect class="c" x="11" y="15" width="6" height="3"/><rect class="c" x="4" y="15" width="6" height="3"/><rect class="c" x="4" y="19" width="6" height="3"/><rect class="c" x="11" y="19" width="6" height="3"/><rect class="c" x="18" y="19" width="6" height="3"/><path class="d" d="m27,3v22H1V3h26m1-1H0v24h28V2h0Z"/><rect class="e" x="3" y="6" width="22" height="1"/><path class="d" d="m3,10v13h22v-13H3Zm8,1h6v3h-6v-3Zm0,4h6v3h-6v-3Zm-7-4h6v3h-6v-3Zm0,4h6v3h-6v-3Zm0,7v-3h6v3h-6Zm7,0v-3h6v3h-6Zm13,0h-6v-3h6v3Zm0-4h-6v-3h6v3Zm0-4h-6v-3h6v3Z"/></g></svg>