<?xml version="1.0" encoding="UTF-8"?><svg id="a" xmlns="http://www.w3.org/2000/svg" width="28" height="28" viewBox="0 0 28 28"><defs><style>.b,.c{fill:#fff;}.d{opacity:.04;}.e{opacity:.2;}.c{opacity:.5;}.f{fill:#39bf68;}</style></defs><rect class="c" y="2" width="28" height="24"/><rect class="d" x="4" y="11" width="6" height="3"/><rect class="b" x="1" y="3" width="26" height="22"/><rect class="d" x="11" y="11" width="6" height="3"/><rect class="d" x="4" y="11" width="6" height="3"/><rect class="d" x="18" y="11" width="6" height="3"/><rect class="d" x="18" y="15" width="6" height="3"/><rect class="d" x="11" y="15" width="6" height="3"/><rect class="d" x="4" y="15" width="6" height="3"/><rect class="d" x="4" y="19" width="6" height="3"/><rect class="d" x="11" y="19" width="6" height="3"/><rect class="d" x="18" y="19" width="6" height="3"/><path class="e" d="m27,3v22H1V3h26m1-1H0v24h28V2h0Z"/><rect class="f" x="3" y="6" width="22" height="1"/><path class="e" d="m3,10v13h22v-13H3Zm8,1h6v3h-6v-3Zm0,4h6v3h-6v-3Zm-7-4h6v3h-6v-3Zm0,4h6v3h-6v-3Zm0,7v-3h6v3h-6Zm7,0v-3h6v3h-6Zm13,0h-6v-3h6v3Zm0-4h-6v-3h6v3Zm0-4h-6v-3h6v3Z"/></svg>