<?xml version="1.0" encoding="UTF-8"?><svg id="a" xmlns="http://www.w3.org/2000/svg" width="28" height="28" viewBox="0 0 28 28"><defs><style>.b,.c{fill:#fff;}.d{opacity:.2;}.c{opacity:.5;}.e{opacity:.08;}.f{fill:#444;}.g{fill:#39bf68;}.h{fill:#b0e5c3;}</style></defs><path class="c" d="m18.717,0H3v28h23V7.283L18.717,0h0Z"/><polygon class="b" points="4 1 4 27 25 27 25 7.698 18.302 1 4 1"/><polygon class="e" points="19 1.698 19 7 24.302 7 19 1.698"/><path class="d" d="m18.717,0H3v28h23V7.283L18.717,0Zm.283,1.698l5.302,5.302h-5.302V1.698Zm2,25.302H4V1h14v7h7v15l-4,4Z"/><rect class="h" x="7" y="12" width="1" height="1"/><path class="g" d="m8,12v1h-1v-1h1m1-1h-3v3h3v-3h0Z"/><rect class="h" x="7" y="17" width="1" height="1"/><path class="g" d="m8,17v1h-1v-1h1m1-1h-3v3h3v-3h0Z"/><rect class="h" x="7" y="22" width="1" height="1"/><path class="g" d="m8,22v1h-1v-1h1m1-1h-3v3h3v-3h0Z"/><path class="f" d="m11,18h5.106c.391-.383.83-.717,1.302-1h-6.408v1Z"/><rect class="f" x="11" y="12" width="12" height="1"/><rect class="f" x="6" y="7" width="10" height="1"/><path class="f" d="m11,22v1h3c0-.34.033-.673.08-1h-3.08Z"/><path class="g" d="m21,18c-2.761,0-5,2.239-5,5s2.239,5,5,5,5-2.239,5-5-2.239-5-5-5Zm-1,7.707l-2.354-2.354.707-.707,1.646,1.646,3.646-3.646.707.707-4.354,4.354Z"/></svg>